<svg id="Layer_1" enable-background="new 0 0 512 512" height="512" viewBox="0 0 512 512" width="512" xmlns="http://www.w3.org/2000/svg"><g><g id="XMLID_797_"><g><g id="XMLID_785_"><g id="XMLID_909_"><g id="XMLID_913_"><g id="XMLID_914_"><g id="XMLID_915_"><g id="XMLID_916_"><g id="XMLID_917_"><g id="XMLID_918_"><g id="XMLID_919_"><g id="XMLID_920_"><g id="XMLID_921_"><g id="XMLID_922_"><g id="XMLID_923_"><g id="XMLID_924_"><circle cx="256" cy="256" fill="#3d5d72" r="256"/></g></g></g></g></g></g></g></g></g></g></g></g></g></g></g></g><path d="m512 256c0-32.434-6.047-63.451-17.049-92.007l-54.347-54.347-355.015 144.48-24.192 144.481 91.968 91.968c31.422 13.768 66.132 21.425 102.635 21.425 141.385 0 256-114.615 256-256z" fill="#244654"/><g><g><path d="m85.589 109.645h327.823v163.236h-327.823z" fill="#ff735c"/><path d="m256 109.65h157.41v163.23h-157.41z" fill="#e85642"/><g><path d="m61.397 109.645h31.746v288.962h-31.746z" fill="#fff7c5"/></g><g><path d="m408.857 109.645h31.746v288.962h-31.746z" fill="#ffde94"/></g></g><g><path d="m242.296 158.778-22.369 58.732 14.018 5.339 5.278-13.858h18.345l5.225 13.845 14.034-5.296-22.18-58.773zm2.639 35.213 3.502-9.194 3.47 9.194z" fill="#ffe670"/><path d="m256 162.35v46.64h1.57l5.22 13.85 14.04-5.3z" fill="#fcd32b"/><path d="m150.035 173.865c5.808-1.749 11.351 2.501 11.655 2.739l5.699 4.79 9.651-11.482-5.741-4.826c-4.323-3.634-14.579-8.901-25.59-5.583-7.153 2.155-12.216 7.816-13.215 14.776-.942 6.567 1.906 12.885 7.434 16.488.331.216.679.405 1.04.566.277.123 6.873 3.06 14.299 5.799 2.763 1.019 5.592 2.801 5.245 4.745-.297 1.665-2.657 4.128-6.78 4.128-4.296 0-8.416-1.715-11.019-4.587l-5.037-5.557-11.115 10.073 5.036 5.558c5.48 6.046 13.547 9.514 22.134 9.514 10.779 0 19.84-6.936 21.546-16.491 1.294-7.251-1.919-16.695-14.82-21.454-5.568-2.054-10.77-4.285-12.644-5.102-.566-.41-.537-1.092-.472-1.548.165-1.152 1.147-2.08 2.694-2.546z" fill="#ffe670"/><path d="m223.557 173.437v-15h-41.269v15h13.081v47.568h15v-47.568z" fill="#ffe670"/><g fill="#fcd32b"><path d="m372.345 158.437h-41.269v15h13.081v47.568h15v-47.568h13.188z"/><path d="m324.944 178.299c0-10.952-9.224-19.862-20.562-19.862h-5.156-7.484-7.516v62.568h15v-16.848l17.543 19.932 11.26-9.91-15.525-17.64c7.309-3.048 12.44-10.074 12.44-18.24zm-20.562-4.862c2.963 0 5.562 2.272 5.562 4.862s-2.599 4.863-5.562 4.863c-.922 0-4.975.009-4.975.009-.005-1.256-.134-4.05-.134-4.872 0-1.011-.004-2.878-.009-4.862z"/></g></g></g></g></svg>